<?xml version="1.0" encoding="UTF-8" standalone="no"?>
<!DOCTYPE svg PUBLIC "-//W3C//DTD SVG 1.1//EN" "http://www.w3.org/Graphics/SVG/1.1/DTD/svg11.dtd">
<svg width="100%" height="100%" viewBox="0 0 100 100" version="1.1" xmlns="http://www.w3.org/2000/svg"
     xml:space="preserve"
     style="fill-rule:evenodd;clip-rule:evenodd;stroke-linecap:round;stroke-linejoin:round;stroke-miterlimit:1.5;">
    <path d="M63.716,72.983C57.341,77.475 49.567,80.115 41.181,80.115C19.551,80.115 1.99,62.554 1.99,40.924C1.99,19.294 19.551,1.733 41.181,1.733C62.811,1.733 80.372,19.294 80.372,40.924C80.372,49.582 77.558,57.589 72.794,64.08L95.455,86.234C97.963,88.686 98.009,92.714 95.556,95.222C93.104,97.731 89.076,97.777 86.568,95.324L63.716,72.983ZM41.181,13.967C56.058,13.967 68.137,26.046 68.137,40.924C68.137,55.802 56.058,67.881 41.181,67.881C26.303,67.881 14.224,55.802 14.224,40.924C14.224,26.046 26.303,13.967 41.181,13.967Z" style="fill:rgb(255,145,0);stroke:rgb(200,106,0);stroke-width:1.46px;"/>
    <g transform="matrix(3.67617,0,0,3.67617,-23.1592,-240.241)">
        <g transform="matrix(13.3866,0,0,13.3866,13.7443,80.9443)">
            <path d="M0.067,-0.667L0.27,-0.667C0.353,-0.667 0.415,-0.655 0.456,-0.632C0.496,-0.609 0.533,-0.573 0.565,-0.523C0.597,-0.474 0.613,-0.411 0.613,-0.335C0.613,-0.24 0.585,-0.16 0.529,-0.096C0.473,-0.032 0.395,-0 0.296,-0L0.067,-0L0.067,-0.667ZM0.22,-0.544L0.22,-0.125L0.285,-0.125C0.341,-0.125 0.384,-0.147 0.411,-0.189C0.439,-0.232 0.453,-0.282 0.453,-0.339C0.453,-0.379 0.445,-0.417 0.429,-0.451C0.413,-0.485 0.394,-0.509 0.37,-0.523C0.347,-0.537 0.319,-0.544 0.286,-0.544L0.22,-0.544Z" style="fill:rgb(255,169,41);fill-rule:nonzero;"/>
        </g>
    </g>
</svg>
